<svg width="200" height="160" viewBox="0 0 200 160" fill="none" xmlns="http://www.w3.org/2000/svg">
<path d="M31.1786 0.500074C26.9144 0.500074 22.8486 1.73674 19.0803 4.21007C15.3119 6.68341 13.1303 9.8634 12.1386 13.7501L1.92442 52.7051C-0.554742 62.3334 1.42859 70.7251 7.97359 77.9684L10.7503 80.4417V141.833C10.7503 146.25 12.7336 150.667 16.7994 154.112C20.8653 157.557 25.6253 159.5 30.5836 159.5H169.417C174.375 159.5 179.334 157.733 183.201 154.112C187.069 150.49 189.25 146.25 189.25 141.833V80.4417L192.027 77.9684C198.572 70.7251 200.555 62.3334 198.076 52.7051L187.862 13.7501C186.573 9.8634 184.292 6.68341 180.623 4.21007C177.287 1.79923 173.118 0.488693 168.822 0.500074H31.1786ZM168.326 17.9017L179.036 56.8567C179.929 60.6551 179.036 64.1001 176.259 67.1917C173.78 69.9301 170.706 71.1667 166.938 71.1667C163.864 71.1667 161.186 70.2834 159.004 68.1634C156.823 66.1317 155.633 63.7467 155.335 60.9201L149.286 18.1667L168.326 17.9017ZM31.1786 18.1667H50.7144L44.6653 60.9201C43.4753 67.8984 39.6078 71.1667 33.0628 71.1667C28.9969 71.1667 25.9228 69.9301 23.7411 67.1917C20.9644 64.1001 20.0719 60.6551 20.9644 56.8567L31.1786 18.1667ZM70.7461 18.1667H90.0836V59.6834C90.0836 62.7751 88.9928 65.4251 86.5136 67.8101C84.0344 70.1067 80.9603 71.1667 77.1919 71.1667C73.8203 71.1667 70.9444 70.1067 68.6636 67.5451C66.3828 64.9834 65.2919 62.3334 65.2919 59.3301V57.9167L70.7461 18.1667ZM109.917 18.1667H129.254L134.709 57.9167C135.502 61.6267 134.709 64.7184 131.833 67.3684C129.254 70.0184 125.883 71.1667 121.817 71.1667C118.743 71.1667 115.966 70.1067 113.487 67.8101C112.322 66.7308 111.407 65.4576 110.794 64.0632C110.181 62.6688 109.883 61.1805 109.917 59.6834V18.1667ZM54.8794 80.4417C61.1269 85.9184 68.8619 88.8334 78.1836 88.8334C86.5136 88.8334 93.8519 85.9184 100 80.4417C106.843 85.9184 114.379 88.8334 122.809 88.8334C131.436 88.8334 138.874 85.9184 145.121 80.4417C150.674 85.9184 158.112 88.8334 167.434 88.8334H169.714V141.833H30.5836V88.8334H33.0628C42.0869 88.8334 49.3261 85.9184 54.8794 80.4417Z" fill="#757575"/>
<rect x="18" y="15" width="163" height="59" fill="#757575"/>
</svg>
