<svg width="50" height="50" viewBox="0 0 50 50" fill="none" xmlns="http://www.w3.org/2000/svg">
<path d="M37.5 6.25C38.0102 6.25007 38.5027 6.43741 38.8841 6.77649C39.2654 7.11557 39.509 7.58281 39.5687 8.08958L39.5833 8.33333V41.6667C39.5827 42.1977 39.3794 42.7084 39.0149 43.0945C38.6503 43.4806 38.1521 43.713 37.6221 43.7441C37.092 43.7752 36.57 43.6028 36.1628 43.2619C35.7556 42.9211 35.4939 42.4377 35.4312 41.9104L35.4166 41.6667V31.25H33.3333C32.823 31.2499 32.3305 31.0626 31.9492 30.7235C31.5679 30.3844 31.3242 29.9172 31.2645 29.4104L31.25 29.1667V16.6667C31.25 12.0625 34.375 6.25 37.5 6.25ZM25 6.25C25.5102 6.25007 26.0027 6.43741 26.3841 6.77649C26.7654 7.11557 27.009 7.58281 27.0687 8.08958L27.0833 8.33333V18.75C27.083 20.5976 26.4691 22.3929 25.3378 23.8537C24.2066 25.3145 22.6221 26.3582 20.8333 26.8208V41.6667C20.8327 42.1977 20.6294 42.7084 20.2649 43.0945C19.9003 43.4806 19.4021 43.713 18.8721 43.7441C18.342 43.7752 17.82 43.6028 17.4128 43.2619C17.0056 42.9211 16.7439 42.4377 16.6812 41.9104L16.6666 41.6667V26.8208C14.9488 26.3767 13.4175 25.3962 12.2953 24.0219C11.1731 22.6476 10.5186 20.9511 10.427 19.1792L10.4166 18.75V8.33333C10.4172 7.80233 10.6205 7.2916 10.9851 6.90548C11.3496 6.51937 11.8478 6.28701 12.3779 6.25589C12.908 6.22477 13.4299 6.39724 13.8371 6.73805C14.2443 7.07886 14.506 7.5623 14.5687 8.08958L14.5833 8.33333V18.75C14.5833 19.4814 14.7758 20.1999 15.1415 20.8333C15.5072 21.4667 16.0332 21.9926 16.6666 22.3583V8.33333C16.6672 7.80233 16.8705 7.2916 17.2351 6.90548C17.5996 6.51937 18.0978 6.28701 18.6279 6.25589C19.158 6.22477 19.6799 6.39724 20.0871 6.73805C20.4943 7.07886 20.756 7.5623 20.8187 8.08958L20.8333 8.33333L20.8354 22.3583C21.4168 22.0223 21.9083 21.5507 22.2681 20.9837C22.628 20.4167 22.8455 19.7712 22.902 19.1021L22.9166 18.75V8.33333C22.9166 7.7808 23.1361 7.25089 23.5268 6.86019C23.9175 6.46949 24.4474 6.25 25 6.25V6.25Z" fill="white"/>
</svg>
