<svg width="50" height="45" viewBox="0 0 50 45" fill="none" xmlns="http://www.w3.org/2000/svg">
<g clip-path="url(#clip0)">
<path d="M38.1249 16.875H26.2499V21.7969C26.2499 25.2861 23.7265 28.125 20.6249 28.125C17.5234 28.125 15 25.2861 15 21.7969V11.1094L9.92964 14.5371C8.42183 15.5478 7.49995 17.3848 7.49995 19.3535V23.5107L1.24995 27.5713C0.0546383 28.3447 -0.359424 30.0674 0.335888 31.4121L6.58589 43.5937C7.27339 44.9385 8.80464 45.3955 9.99995 44.6221L18.0781 39.375H28.7499C31.5078 39.375 33.7499 36.8525 33.7499 33.75H34.9999C36.3828 33.75 37.4999 32.4932 37.4999 30.9375V25.3125H38.1249C39.164 25.3125 40 24.3721 40 23.2031V18.9844C40 17.8154 39.164 16.875 38.1249 16.875ZM49.664 13.5879L43.414 1.40624C42.7265 0.0615142 41.1953 -0.395517 40 0.377921L31.9218 5.62499H23.9374C22.9999 5.62499 22.0859 5.92382 21.289 6.47753L18.6718 8.31444C17.9375 8.82421 17.5 9.72948 17.5 10.6963V21.7969C17.5 23.7392 18.8984 25.3125 20.6249 25.3125C22.3515 25.3125 23.7499 23.7392 23.7499 21.7969V14.0625H38.1249C40.539 14.0625 42.5 16.2685 42.5 18.9844V21.4892L48.75 17.4287C49.9453 16.6465 50.3515 14.9326 49.664 13.5879V13.5879Z" fill="white"/>
</g>
<defs>
<clipPath id="clip0">
<rect width="50" height="45" fill="white"/>
</clipPath>
</defs>
</svg>
