<svg width="35" height="60" viewBox="0 0 35 60" fill="none" xmlns="http://www.w3.org/2000/svg">
<path d="M28 0.625C29.8333 0.625 31.3958 1.29167 32.6875 2.625C33.9792 3.95833 34.625 5.54167 34.625 7.375V52.625C34.625 54.4583 33.9792 56.0417 32.6875 57.375C31.3958 58.7083 29.8333 59.375 28 59.375H6.625C4.79167 59.375 3.22917 58.7083 1.9375 57.375C0.645833 56.0417 0 54.4583 0 52.625V7.375C0 5.54167 0.645833 3.95833 1.9375 2.625C3.22917 1.29167 4.79167 0.625 6.625 0.625H28ZM17.3125 56.625C18.4375 56.625 19.3958 56.25 20.1875 55.5C20.9792 54.75 21.375 53.8125 21.375 52.6875C21.375 51.5625 20.9792 50.6042 20.1875 49.8125C19.3958 49.0208 18.4375 48.625 17.3125 48.625C16.1875 48.625 15.25 49.0208 14.5 49.8125C13.75 50.6042 13.375 51.5625 13.375 52.6875C13.375 53.8125 13.75 54.75 14.5 55.5C15.25 56.25 16.1875 56.625 17.3125 56.625ZM29.375 46V8.625H5.375V46H29.375Z" fill="#757575"/>
</svg>
